<?xml version="1.0" encoding="utf-8"?>
<!DOCTYPE svg PUBLIC "-//W3C//DTD SVG 1.1//EN" "http://www.w3.org/Graphics/SVG/1.1/DTD/svg11.dtd">
<svg version="1.1" baseProfile="full"
 xmlns="http://www.w3.org/2000/svg"
 xmlns:xlink="http://www.w3.org/1999/xlink"
 xmlns:ev="http://www.w3.org/2001/xml-events" >
<defs>
<filter id="Filter_0">
  <feFlood flood-color="rgb( 27, 77, 96 )" flood-opacity="1" result="floodOut" />
  <feComposite operator="atop" in="floodOut" in2="SourceGraphic" result="compOut" />
  <feBlend mode="normal" in="compOut" in2="SourceGraphic" />
</filter>

</defs><g filter="url(#Filter_0)">
<path fill-rule="evenodd"  fill="rgb( 0, 0, 0 )"
 d="M1345.889,113.085 C1345.791,113.001 1345.651,112.981 1345.533,113.035 C1345.533,113.035 1324.190,122.770 1324.190,122.770 C1324.076,122.823 1324.002,122.935 1324.000,123.060 C1323.999,123.184 1324.070,123.298 1324.184,123.353 C1324.184,123.353 1330.224,126.263 1330.224,126.263 C1330.335,126.316 1330.467,126.304 1330.566,126.232 C1330.566,126.232 1336.438,121.923 1336.438,121.923 C1336.438,121.923 1331.828,126.578 1331.828,126.578 C1331.762,126.644 1331.729,126.736 1331.736,126.828 C1331.736,126.828 1332.195,132.697 1332.195,132.697 C1332.205,132.827 1332.294,132.938 1332.420,132.979 C1332.454,132.989 1332.489,132.995 1332.523,132.995 C1332.617,132.995 1332.708,132.955 1332.772,132.883 C1332.772,132.883 1335.978,129.236 1335.978,129.236 C1335.978,129.236 1339.941,131.095 1339.941,131.095 C1340.027,131.135 1340.127,131.137 1340.214,131.099 C1340.301,131.062 1340.368,130.989 1340.397,130.900 C1340.397,130.900 1345.986,113.424 1345.986,113.424 C1346.025,113.302 1345.987,113.169 1345.889,113.085 Z"/>
</g>
</svg>